# xmcd CD database file
#
# Track frame offsets:
#	150
#	13013
#	30563
#	44809
#	60718
#	76244
#	94708
#	113005
#	130622
#	150406
#
# Disc length: 2178 seconds
#
# Revision: 9
# Processed by: cddbd v1.5.2PL0 Copyright (c) Steve Scherf et al.
# Submitted via: CDex 1.51
#
DISCID=7108800a
DTITLE=Terry Lightfoot And His Band - Stomp Off, Let's Go
DYEAR=1995
DGENRE=Jazz
TTITLE0=Barnyard Blues
TTITLE1=This Little Light Of Mine
TTITLE2=Happy Bird Shuffle
TTITLE3=12th Street Rag
TTITLE4=Old Man Mose
TTITLE5=That's A Plenty
TTITLE6=Tishomingo Blues
TTITLE7=Buena Sera
TTITLE8=Sentimental Journey
TTITLE9=Dippermouth Blues
EXTD=YEAR: 1995
EXTT0=
EXTT1=
EXTT2=
EXTT3=
EXTT4=
EXTT5=
EXTT6=
EXTT7=
EXTT8=
EXTT9=
PLAYORDER=
